<svg width="5226" height="1428" viewBox="0 0 5226 1428" fill="none" xmlns="http://www.w3.org/2000/svg">
<path d="M4120.93 831.882V1004.49L3862.99 1422.76V1067H3862.72V884.938C3862.72 818.912 3846.8 767.33 3814.97 730.19C3783.73 692.461 3738.63 673.596 3679.68 673.596C3641.95 673.596 3608.93 682.734 3580.64 701.009C3552.93 718.694 3531.12 743.454 3515.2 775.288C3499.87 806.533 3492.21 842.788 3492.21 884.054V1427H3234V150.988H3492.21V642.646H3497.51C3522.27 583.695 3559.12 538.597 3608.05 507.352C3657.57 475.518 3717.7 459.601 3788.44 459.601C3857.42 459.601 3916.66 474.929 3966.18 505.583C4015.7 535.649 4053.73 578.389 4080.25 633.804C4107.37 689.218 4120.93 755.244 4120.93 831.882Z" fill="black"/>
<path d="M4729.44 0L3862.99 1422.89L3863.16 1423H3926.15L4775.56 28.0852L4729.44 0Z" fill="black"/>
<path d="M2487.92 1388.83C2549.23 1414.18 2623.51 1426.85 2710.76 1426.85C2792.11 1426.85 2863.74 1414.18 2925.64 1388.83C2988.13 1362.89 3037.06 1326.93 3072.43 1280.95C3107.8 1234.97 3125.48 1181.02 3125.48 1119.12V1118.24C3125.48 1048.68 3103.67 993.263 3060.05 951.997C3017.01 910.73 2945.68 879.781 2846.05 859.147L2685.11 824.661C2653.28 817.586 2627.93 809.333 2609.07 799.901C2590.2 790.469 2576.64 779.562 2568.39 767.183C2560.73 754.213 2556.89 739.77 2556.89 723.853V722.969C2556.89 702.336 2562.79 684.65 2574.58 669.912C2586.37 654.585 2603.17 642.794 2624.98 634.541C2646.8 626.288 2672.44 622.161 2701.92 622.161C2749.67 622.161 2787.1 633.657 2814.22 656.648C2841.93 679.05 2857.84 707.346 2861.97 741.539L2862.85 748.613H3100.73V739.77C3098.96 684.355 3082.16 633.952 3050.32 588.559C3019.08 543.166 2973.98 507.205 2915.03 480.677C2856.66 453.559 2785.63 440 2701.92 440C2621.74 440 2551.59 452.38 2491.46 477.14C2431.92 501.31 2385.93 535.502 2353.51 579.716C2321.09 623.93 2304.88 676.397 2304.88 737.117V738.001C2304.88 785.163 2315.19 827.019 2335.83 863.569C2356.46 899.529 2387.11 929.89 2427.79 954.649C2469.06 978.82 2520.34 997.389 2581.65 1010.36L2742.59 1043.96C2789.16 1054.57 2821.59 1067.54 2839.86 1082.87C2858.14 1098.2 2867.28 1118.54 2867.28 1143.88V1144.77C2867.28 1165.4 2860.79 1183.09 2847.82 1197.83C2835.44 1212.56 2817.76 1224.06 2794.77 1232.31C2771.77 1239.98 2743.77 1243.81 2710.76 1243.81C2659.47 1243.81 2619.38 1233.49 2590.5 1212.86C2561.61 1192.23 2543.04 1163.34 2534.79 1126.2L2533.02 1118.24H2281L2281.88 1126.2C2288.96 1185.74 2309.59 1238.21 2343.78 1283.6C2378.57 1328.4 2426.61 1363.48 2487.92 1388.83Z" fill="black"/>
<path fill-rule="evenodd" clip-rule="evenodd" d="M1632.34 1427.43C1569.26 1427.43 1513.85 1415.35 1466.1 1391.18C1418.34 1366.42 1380.91 1332.52 1353.79 1289.48C1327.26 1245.86 1314 1196.34 1314 1140.93V1139.16C1314 1081.39 1328.44 1032.16 1357.33 991.483C1386.22 950.217 1428.07 917.794 1482.9 894.213C1537.72 870.632 1604.34 856.189 1682.74 850.883L1917.08 836.308V778.373C1917.08 736.517 1903.81 703.504 1877.28 679.333C1850.76 654.574 1812.14 642.194 1761.44 642.194C1713.1 642.194 1674.79 652.216 1646.49 672.259C1618.19 692.303 1600.8 717.652 1594.32 748.307L1592.55 756.266H1356.45L1357.33 745.654C1362.05 687.292 1381.21 635.414 1414.81 590.021C1449 544.629 1496.16 509.257 1556.29 483.908C1617.01 457.969 1688.93 445 1772.06 445C1854 445 1925.04 458.264 1985.17 484.792C2045.3 510.731 2091.87 547.576 2124.88 595.327C2158.48 643.078 2175.29 698.788 2175.29 762.456V1412.4H1917.08V1270.92H1911.77C1894.09 1303.34 1871.09 1331.34 1842.8 1354.92C1815.09 1377.91 1783.55 1395.89 1748.18 1408.86C1712.81 1421.24 1674.2 1427.43 1632.34 1427.43ZM1721.65 1010.05L1917.08 997.513V1065.76C1917.08 1098.78 1908.23 1128.55 1890.55 1155.07C1873.45 1181.01 1849.58 1201.65 1818.92 1216.97C1788.86 1231.71 1754.66 1239.08 1716.35 1239.08C1671.54 1239.08 1635.88 1229.35 1609.35 1209.9C1582.82 1189.86 1569.56 1162.44 1569.56 1127.66V1125.89C1569.56 1092.29 1582.53 1065.47 1608.46 1045.42C1634.4 1024.79 1672.13 1013 1721.65 1010.05Z" fill="black"/>
<path d="M950 1427.01V151H1208.21V1427.01H950Z" fill="black"/>
<path d="M206.921 1388.83C268.231 1414.18 342.51 1426.85 429.759 1426.85C511.112 1426.85 582.739 1414.18 644.638 1388.83C707.127 1362.89 756.057 1326.93 791.428 1280.95C826.799 1234.97 844.485 1181.02 844.485 1119.12V1118.24C844.485 1048.68 822.673 993.263 779.048 951.997C736.014 910.73 664.682 879.781 565.053 859.147L404.115 824.661C372.281 817.586 346.932 809.333 328.067 799.901C309.202 790.469 295.643 779.562 287.39 767.183C279.726 754.213 275.895 739.77 275.895 723.853V722.969C275.895 702.336 281.79 684.65 293.58 669.912C305.37 654.585 322.172 642.794 343.984 634.541C365.796 626.288 391.44 622.161 420.916 622.161C468.667 622.161 506.101 633.657 533.219 656.648C560.927 679.05 576.844 707.346 580.97 741.539L581.854 748.613H819.725V739.77C817.957 684.355 801.155 633.952 769.321 588.559C738.077 543.166 692.979 507.205 634.027 480.677C575.665 453.559 504.628 440 420.916 440C340.742 440 270.589 452.38 210.458 477.14C150.917 501.31 104.934 535.502 72.5107 579.716C40.0873 623.93 23.8755 676.397 23.8755 737.117V738.001C23.8755 785.163 34.192 827.019 54.8252 863.569C75.4584 899.529 106.113 929.89 146.79 954.649C188.056 978.82 239.344 997.389 300.654 1010.36L461.593 1043.96C508.165 1054.57 540.588 1067.54 558.863 1082.87C577.138 1098.2 586.276 1118.54 586.276 1143.88V1144.77C586.276 1165.4 579.791 1183.09 566.822 1197.83C554.442 1212.56 536.756 1224.06 513.765 1232.31C490.774 1239.98 462.772 1243.81 429.759 1243.81C378.471 1243.81 338.383 1233.49 309.497 1212.86C280.611 1192.23 262.041 1163.34 253.788 1126.2L252.019 1118.24H0L0.884277 1126.2C7.9585 1185.74 28.5917 1238.21 62.7837 1283.6C97.5653 1328.4 145.611 1363.48 206.921 1388.83Z" fill="black"/>
<path d="M4731.3 1427C4673.88 1427 4623.44 1415.99 4579.97 1393.97C4536.5 1371.41 4502.43 1340.53 4477.74 1301.33C4453.6 1261.59 4441.52 1216.47 4441.52 1165.99V1164.38C4441.52 1111.75 4454.67 1066.91 4480.96 1029.85C4507.26 992.255 4545.36 962.717 4595.26 941.235C4645.17 919.753 4705.81 906.595 4777.18 901.761L5113.64 880.816V1027.43L4812.59 1046.77C4767.52 1049.45 4733.17 1060.19 4709.56 1078.99C4685.95 1097.25 4674.15 1121.68 4674.15 1152.3V1153.91C4674.15 1185.59 4686.22 1210.57 4710.37 1228.83C4734.52 1246.55 4766.98 1255.41 4807.76 1255.41C4842.64 1255.41 4873.77 1248.7 4901.14 1235.27C4929.04 1221.31 4950.77 1202.51 4966.33 1178.88C4982.43 1154.71 4990.48 1127.59 4990.48 1097.52V835.704C4990.48 797.573 4978.41 767.498 4954.26 745.479C4930.11 722.923 4894.96 711.644 4848.81 711.644C4804.81 711.644 4769.93 720.774 4744.17 739.034C4718.42 757.294 4702.59 780.387 4696.68 808.314L4695.07 815.564H4480.16L4480.96 805.897C4485.26 752.729 4502.7 705.468 4533.28 664.115C4564.41 622.762 4607.34 590.539 4662.07 567.446C4717.34 543.815 4782.81 532 4858.47 532C4933.06 532 4997.73 544.084 5052.46 568.251C5107.2 591.881 5149.59 625.447 5179.64 668.949C5210.23 712.45 5225.52 763.202 5225.52 821.203V1413.31H4990.48V1284.41H4985.65C4969.55 1313.95 4948.63 1339.46 4922.87 1360.94C4897.65 1381.89 4868.94 1398.27 4836.74 1410.08C4804.54 1421.36 4769.4 1427 4731.3 1427Z" fill="black"/>
</svg>
